<svg id="logosandtypes_com" xmlns="http://www.w3.org/2000/svg" viewBox="0 0 150 150.2"><path d="M0 .2h150v150H0V.2z" fill="none"/><g><path d="M74.9 12.5c-34.6 0-62.7 27.7-62.7 61.8s28.1 61.8 62.7 61.8 62.7-27.7 62.7-61.8-28.1-61.8-62.7-61.8zM37.5 69.8C55.4 64 72.4 59.7 76.8 50.4c5.5 9.3 19.1 12.7 34.9 18.2 1.9 3.8 3.1 7.9 3.8 12.3h-10.7c-2.2-5.3-7.5-9.1-13.6-9.1s-11.4 3.8-13.6 9.1h-5.5c-2.2-5.3-7.5-9.1-13.6-9.1s-11.4 3.8-13.6 9.1H34.3c.5-3.9 1.6-7.6 3.2-11.1zm62.6 16.7c0 4.9-4 8.9-8.9 8.9s-8.9-4-8.9-8.9 4-8.9 8.9-8.9c4.9.1 8.9 4 8.9 8.9zm-32.7 0c0 4.9-4 8.9-8.9 8.9s-8.9-4-8.9-8.9 4-8.9 8.9-8.9c4.9.1 8.9 4 8.9 8.9zm7.5 41.2c-22.4 0-40.5-17.9-41-40.2h10c.5 7.7 6.9 13.7 14.7 13.7 7.8 0 14.1-6 14.7-13.7h3.4c.5 7.7 6.9 13.7 14.7 13.7 7.8 0 14.1-6 14.7-13.7h10c-.7 22.3-18.8 40.2-41.2 40.2z" fill="#ee6513"/></g></svg>